PathFileType	3	(X/Y/Z)	E:\ViconData\BIOM9541 2025\Week 7\Wed1100\Hanif 90 squat 2-5 Squat 01.trc
DataRate	CameraRate	NumFrames	NumMarkers	Units	OrigDataRate	OrigDataStartFrame	OrigNumFrames
200.0	200.0	6	19	mm	200.0	1	1467	
Frame#	Time	C7			CLAV			RBAK			LASI			RASI			LPSI			RPSI			LTHI			LKNE			LTIB			LANK			LHEE			LTOE			RTHI			RKNE			RTIB			RANK			RHEE			RTOE			
		X1	Y1	Z1	X2	Y2	Z2	X3	Y3	Z3	X4	Y4	Z4	X5	Y5	Z5	X6	Y6	Z6	X7	Y7	Z7	X8	Y8	Z8	X9	Y9	Z9	X10	Y10	Z10	X11	Y11	Z11	X12	Y12	Z12	X13	Y13	Z13	X14	Y14	Z14	X15	Y15	Z15	X16	Y16	Z16	X17	Y17	Z17	X18	Y18	Z18	X19	Y19	Z19	
1	0	291.49893	1319.4022	-1208.3596	148.11882	1245.8156	-1202.1515	312.53571	1236.8112	-1355.9436	178.73962	869.435	-1085.762	170.14847	881.71234	-1343.7141	342.15744	945.72577	-1171.9374	341.43307	944.61383	-1246.7404	250.71919	550.00409	-1003.8533	276.39609	414.62869	-1003.7216	302.95975	215.78835	-961.51129	309.75168	62.956787	-966.04913	328.40604	47.548256	-1024.3169	162.75497	38.457928	-935.51117	239.93867	726.22723	-1410.422	284.77795	418.21301	-1420.376	299.09998	332.30923	-1445.7157	305.38388	73.359276	-1444.5936	327.50613	48.146343	-1381.8029	161.59912	40.260277	-1475.3806
2	0.005	291.44846	1319.3936	-1208.3811	148.06796	1245.7919	-1202.1422	312.47809	1236.814	-1355.9301	178.687	869.45178	-1085.7424	170.12047	881.67566	-1343.7029	342.10733	945.74866	-1171.9161	341.38705	944.64252	-1246.729	250.70531	549.98364	-1003.8405	276.40012	414.62659	-1003.6884	302.94998	215.79654	-961.51343	309.76855	62.953465	-966.05328	328.40768	47.541042	-1024.3181	162.73311	38.448788	-935.52832	239.89386	726.32233	-1410.5155	284.75418	418.19522	-1420.3651	299.07776	332.2948	-1445.7058	305.39459	73.347313	-1444.5743	327.47562	48.171909	-1381.7677	161.5762	40.268826	-1475.428
3	0.01	291.3801	1319.4265	-1208.3622	148.00076	1245.7953	-1202.1111	312.40799	1236.8304	-1355.9172	178.6489	869.41119	-1085.7081	170.06525	881.6969	-1343.6581	342.0217	945.82269	-1171.6985	341.28995	944.52319	-1246.7056	250.67786	549.98022	-1003.8053	276.38947	414.59024	-1003.6953	302.94836	215.74947	-961.50641	309.7388	62.957928	-965.99298	328.38663	47.616898	-1024.3119	162.73035	38.439129	-935.49591	239.8629	726.24841	-1410.356	284.73199	418.26947	-1420.3381	299.03754	332.36703	-1445.6737	305.51196	73.677986	-1444.6694	327.48294	48.659313	-1381.2291	161.80312	39.972591	-1475.714
4	0.015	291.3028	1319.4255	-1208.3148	147.92548	1245.8011	-1202.0747	312.33353	1236.8645	-1355.8998	178.59901	869.38721	-1085.673	170.0199	881.72296	-1343.6364	341.96429	945.87823	-1171.5533	341.20062	944.41675	-1246.6747	250.65726	549.91455	-1003.7966	276.38223	414.55438	-1003.7012	302.90729	215.73474	-961.46863	309.70734	62.972336	-965.94586	328.35818	47.675053	-1024.2633	162.70486	38.444756	-935.44385	239.79024	726.40009	-1410.4553	284.67035	418.33612	-1420.3196	299.00125	332.43124	-1445.6638	305.49881	73.761818	-1444.6497	327.50052	48.652569	-1381.2388	161.77513	40.002537	-1475.6503
5	0.02	291.24484	1319.412	-1208.2816	147.85934	1245.7946	-1202.0277	312.28867	1236.8445	-1355.8673	178.55949	869.3808	-1085.652	169.95552	881.72797	-1343.6405	341.89447	945.86066	-1171.5291	341.15811	944.36151	-1246.6919	250.60741	549.9223	-1003.7593	276.32178	414.54919	-1003.672	302.89355	215.70708	-961.49048	309.72943	62.935509	-965.9411	328.36215	47.635887	-1024.2611	162.69519	38.427223	-935.44611	239.78839	726.27722	-1410.3203	284.65729	418.30557	-1420.3037	298.99814	332.41928	-1445.6437	305.51465	73.699043	-1444.6561	327.49435	48.620384	-1381.2438	161.75746	40.021637	-1475.6534
6	0.025	291.20587	1319.3667	-1208.3004	147.80084	1245.7826	-1201.9985	312.2533	1236.8038	-1355.8401	178.505	869.40521	-1085.6486	169.90895	881.68268	-1343.6658	341.90848	945.77582	-1171.8015	341.20831	944.55219	-1246.6996	250.56989	549.94385	-1003.7409	276.29819	414.59741	-1003.6341	302.86053	215.73509	-961.47412	309.7597	62.916824	-965.97168	328.40195	47.533844	-1024.2531	162.73866	38.418709	-935.49615	239.76227	726.19843	-1410.3112	284.66949	418.211	-1420.2889	299.01401	332.30447	-1445.6249	305.55179	73.575844	-1444.6711	327.49075	48.552086	-1381.3142	161.75542	39.949345	-1475.6218
